<svg width="100" height="100" viewBox="0 0 100 100" fill="none" xmlns="http://www.w3.org/2000/svg">
<path d="M10.2244 66.9192C11.3965 68.0909 12.9859 68.7491 14.6432 68.7491C16.3005 68.7491 17.8899 68.0909 19.0619 66.9192L49.9994 35.9817L80.937 66.9192C82.1157 68.0577 83.6945 68.6876 85.3332 68.6734C86.9719 68.6591 88.5395 68.0018 89.6983 66.843C90.8571 65.6842 91.5144 64.1167 91.5287 62.4779C91.5429 60.8392 90.9129 59.2604 89.7745 58.0817L54.4182 22.7254C53.2462 21.5537 51.6567 20.8955 49.9994 20.8955C48.3422 20.8955 46.7527 21.5537 45.5807 22.7254L10.2244 58.0817C9.05275 59.2537 8.39453 60.8431 8.39453 62.5004C8.39453 64.1577 9.05275 65.7471 10.2244 66.9192V66.9192Z" fill="black"/>
</svg>
