<?xml version="1.0" encoding="UTF-8"?>
<svg xmlns="http://www.w3.org/2000/svg" xmlns:xlink="http://www.w3.org/1999/xlink" viewBox="0 0 48 48" width="48px" height="48px">
<g id="surface26439272">
<path style=" stroke:none;fill-rule:nonzero;fill:rgb(0%,100%,65.882355%);fill-opacity:1;" d="M 44 24 C 44 32.960938 38.121094 40.539062 30 43.078125 L 30 38 C 30 36.289062 29.28125 34.761719 28.140625 33.660156 C 33.378906 32.710938 36 29.660156 36 24 C 36 21.550781 35.5 19.609375 34.519531 18.101562 C 34.960938 16.390625 35.21875 13.960938 34 12 C 31.640625 12 29.988281 13.390625 29.019531 14.53125 C 27.570312 14.179688 25.898438 14 24 14 C 22.199219 14 20.539062 14.199219 19.058594 14.609375 C 18.101562 13.460938 16.421875 12 14 12 C 12.578125 14.28125 13.160156 16.738281 13.699219 18.121094 C 12.621094 19.628906 12 21.570312 12 24 C 12 29.660156 14.621094 32.710938 19.859375 33.660156 C 19.191406 34.308594 18.671875 35.101562 18.351562 36 L 16 36 C 14.558594 36 14 35.359375 13.230469 34.320312 C 12.460938 33.28125 11.628906 32.578125 10.640625 32.289062 C 10.109375 32.230469 9.75 32.660156 10.21875 33.039062 C 11.789062 34.171875 11.898438 36.019531 12.53125 37.230469 C 13.101562 38.320312 14.28125 39 15.609375 39 L 18 39 L 18 43.078125 C 9.878906 40.539062 4 32.960938 4 24 C 4 12.949219 12.949219 4 24 4 C 35.050781 4 44 12.949219 44 24 Z M 44 24 "/>
</g>
</svg>
